<?xml version="1.0" standalone="no"?><!DOCTYPE svg PUBLIC "-//W3C//DTD SVG 1.1//EN" "http://www.w3.org/Graphics/SVG/1.1/DTD/svg11.dtd"><svg t="1540049453316" class="icon" style="" viewBox="0 0 1024 1024" version="1.1" xmlns="http://www.w3.org/2000/svg" p-id="8241" xmlns:xlink="http://www.w3.org/1999/xlink" width="30" height="30"><defs><style type="text/css"></style></defs><path d="M508.207407 2.528395c-279.387654 0-505.679012 226.291358-505.679012 505.679012 0 279.387654 226.291358 505.679012 505.679012 505.679012 279.387654 0 505.679012-226.291358 505.679012-505.679012C1013.88642 228.819753 787.595062 2.528395 508.207407 2.528395zM508.207407 973.432099C251.575309 973.432099 44.246914 766.103704 44.246914 508.207407S251.575309 42.982716 508.207407 42.982716C766.103704 42.982716 973.432099 251.575309 973.432099 508.207407S766.103704 973.432099 508.207407 973.432099z" p-id="8242"></path><path d="M752.197531 460.167901c1.264198-26.548148 1.264198-45.511111-1.264198-49.303704-6.320988-22.755556-20.22716-17.698765-20.22716-22.755556 0-134.004938-99.871605-242.725926-222.498765-242.725926S286.97284 252.839506 286.97284 386.844444c0 10.11358-8.849383 2.528395-16.434568 22.755556-3.792593 8.849383 1.264198 15.17037 0 49.303704 0 8.849383-40.454321 51.832099-55.624691 96.079012-15.17037 44.246914-17.698765 89.758025 6.320988 107.45679 24.019753 17.698765 46.775309-59.417284 49.303704-48.039506 1.264198 5.05679 2.528395 10.11358 5.05679 15.17037 7.585185 21.491358 20.22716 44.246914 39.190123 67.002469 3.792593 5.05679-24.019753 12.641975-39.190123 40.454321-16.434568 27.812346 5.05679 79.644444 85.965432 79.644444 104.928395 0 127.683951-36.661728 130.212346-36.661728 7.585185 0 8.849383 0 16.434568 0 10.11358 0 6.320988 1.264198 15.17037 0 5.05679 0 55.624691 44.246914 126.419753 36.661728 120.098765-12.641975 101.135802-53.096296 92.28642-79.644444-10.11358-26.548148-44.246914-39.190123-42.982716-41.718519 29.076543-31.604938 32.869136-51.832099 42.982716-80.908642 3.792593-12.641975 31.604938 67.002469 53.096296 48.039506 8.849383-7.585185 26.548148-39.190123 8.849383-107.45679C785.066667 487.980247 750.933333 472.809877 752.197531 460.167901z" p-id="8243"></path></svg>
