<?xml version="1.0" standalone="no"?><!DOCTYPE svg PUBLIC "-//W3C//DTD SVG 1.1//EN"
  "http://www.w3.org/Graphics/SVG/1.1/DTD/svg11.dtd">
<svg t="1540048377745" class="icon" style="" viewBox="0 0 1024 1024" version="1.1" xmlns="http://www.w3.org/2000/svg"
     p-id="1959" xmlns:xlink="http://www.w3.org/1999/xlink" width="30" height="30">
  <defs>
    <style type="text/css"></style>
  </defs>
  <path d="M512 512m-512 0a512 512 0 1 0 1024 0 512 512 0 1 0-1024 0Z" fill="#51B440" p-id="1960"></path>
  <path
    d="M651.733333 395.733333h24.533334c-21.333333-100.266667-129.066667-172.8-247.466667-172.8-138.666667 3.2-250.666667 97.066667-250.666667 211.2 0 69.333333 38.4 124.8 101.333334 165.333334L254.933333 672l87.466667-41.6c30.933333 6.4 55.466667 13.866667 87.466667 13.866667h24.533333c-3.2-17.066667-7.466667-34.133333-7.466667-52.266667-7.466667-106.666667 86.4-196.266667 204.8-196.266667z m-136.533333-69.333333c21.333333 0 38.4 17.066667 38.4 38.4 0 20.266667-17.066667 38.4-38.4 38.4s-38.4-17.066667-38.4-38.4 18.133333-38.4 38.4-38.4z m-169.6 75.733333c-24.533333 0-38.4-17.066667-38.4-38.4 0-20.266667 17.066667-38.4 38.4-38.4s38.4 17.066667 38.4 38.4c-4.266667 21.333333-18.133333 38.4-38.4 38.4z m545.066667 198.4c0-97.066667-97.066667-176-209.066667-176-118.4 0-209.066667 80-209.066667 176s93.866667 176 209.066667 176c24.533333 0 49.066667-6.4 72.533333-13.866666l66.133334 38.4-17.066667-61.866667c49.066667-34.133333 87.466667-83.2 87.466667-138.666667z m-275.2-26.666666c-13.866667 0-27.733333-10.666667-27.733334-27.733334 0-13.866667 10.666667-27.733333 27.733334-27.733333s27.733333 10.666667 27.733333 27.733333c0 13.866667-13.866667 27.733333-27.733333 27.733334z m135.466666 0c-13.866667 0-27.733333-10.666667-27.733333-27.733334 0-13.866667 10.666667-27.733333 27.733333-27.733333 13.866667 0 27.733333 10.666667 27.733334 27.733333s-13.866667 27.733333-27.733334 27.733334z"
    fill="#FFFFFF" p-id="1961"></path>
</svg>
