<?xml version="1.0" standalone="no"?><!DOCTYPE svg PUBLIC "-//W3C//DTD SVG 1.1//EN" "http://www.w3.org/Graphics/SVG/1.1/DTD/svg11.dtd"><svg t="1540049347706" class="icon" style="" viewBox="0 0 1024 1024" version="1.1" xmlns="http://www.w3.org/2000/svg" p-id="5599" xmlns:xlink="http://www.w3.org/1999/xlink" width="30" height="30"><defs><style type="text/css"></style></defs><path d="M511.739624 1023.639479C234.458866 1023.639479 8.812737 794.107734 8.812737 512.020029 8.812737 229.932324 234.418808 0.440637 511.739624 0.440637 789.020381 0.440637 1014.66651 229.932324 1014.66651 512.020029 1014.66651 794.107734 789.020381 1023.639479 511.739624 1023.639479ZM511.739624 54.318507C263.621015 54.318507 61.809334 259.615225 61.809334 511.979971 61.809334 764.384775 263.621015 969.681493 511.739624 969.681493 759.858233 969.681493 961.669914 764.384775 961.629856 511.979971 961.629856 259.615225 759.818175 54.318507 511.739624 54.318507ZM787.738528 745.958143 253.80683 745.958143C232.736377 745.958143 215.671713 728.573016 215.671713 707.142041L215.671713 319.181317C215.671713 297.750342 232.736377 280.405273 253.80683 280.405273L787.738528 280.405273C808.808982 280.405273 825.873646 297.750342 825.873646 319.181317L825.873646 707.142041C825.873646 728.573016 808.808982 745.958143 787.738528 745.958143ZM744.996753 362.684192 744.996753 362.684192C737.545984 355.073192 725.488558 355.073192 718.037789 362.684192L651.94226 429.1803 558.927825 523.79705 558.927825 523.556703C548.632946 533.531119 534.893088 539.860267 519.590971 539.860267 505.33036 539.860267 492.672065 534.011814 482.657591 525.199077L482.657591 526.240582 357.797129 399.216993 358.678402 398.656183 323.50757 362.684192C316.056801 355.073192 303.999374 355.073192 296.548605 362.684192 289.097837 370.255134 289.097837 382.512851 296.548605 390.083793L417.202989 513.502171 296.548605 636.239565C289.097837 643.810507 289.097837 656.108282 296.548605 663.679224 303.999374 671.250166 316.056801 671.250166 323.50757 663.679224L444.081837 541.021946 475.607401 573.268552C477.169659 575.071158 478.852091 576.793647 480.614638 578.395963L482.657591 580.478974 482.657591 580.078395C492.471776 588.17009 504.809608 593.177327 518.389234 593.177327 534.252161 593.177327 548.55283 586.64789 558.927825 576.072605L558.927825 577.3144 595.660916 540.381019 716.836052 663.679224C724.286821 671.250166 736.384305 671.250166 743.835074 663.679224 751.285843 656.108282 751.285843 643.810507 743.835074 636.239565L622.780112 513.101592 744.996753 390.083793C752.447522 382.512851 752.447522 370.255134 744.996753 362.684192Z" fill="#1296db" p-id="5600"></path></svg>
